<svg id="logo.svg" xmlns="http://www.w3.org/2000/svg" width="161.063" height="50" viewBox="0 0 161.063 50">
  <defs>
    <style>
      .cls-1, .cls-2 {
        fill: #737373;
      }

      .cls-1, .cls-3 {
        fill-rule: evenodd;
      }

      .cls-3 {
        fill: #fff;
      }
    </style>
  </defs>
  <path id="Display" class="cls-1" d="M293.512,47.2V64h6.769c4.992,0,8.808-3.192,8.808-8.329,0-5.113-3.792-8.473-8.856-8.473h-6.721ZM296.848,60.9V50.295h3.193c2.976,0,5.688,1.728,5.688,5.377,0,3.672-2.712,5.232-5.64,5.232h-3.241Zm14.52,3.1H314.7V47.2h-3.336V64Zm5.568-4.272c0.816,3.7,4.1,4.584,6.984,4.584,3.985,0,6.337-1.68,6.337-5.017,0-3.672-2.832-4.632-5.329-5.112-2.352-.48-4.128-0.792-4.128-2.472,0-1.176.816-1.9,2.664-1.9,1.944,0,3.049.792,3.481,2.208l3.192-.84c-0.888-2.952-3.288-4.32-6.6-4.32-3.7,0-6.144,1.68-6.144,4.944,0,3.5,2.856,4.488,5.136,5.016,2.088,0.5,4.345.48,4.345,2.472,0,1.392-1.128,2.088-2.953,2.088-2.064,0-3.528-.864-3.792-2.52ZM332.488,47.2V64h3.336V58.407h2.544c4.032,0,6.481-2.136,6.481-5.592,0-3.576-2.449-5.616-6.481-5.616h-5.88Zm3.336,8.281V50.247h2.64c2.016,0,3.048.936,3.048,2.616,0,1.632-.984,2.616-3.048,2.616h-2.64ZM346.935,64H358.24V60.9h-7.968V47.2h-3.337V64Zm25.009-3.36L373.216,64h3.576l-6.721-16.8H366.3L359.583,64h3.528l1.272-3.36h7.561Zm-1.176-3.024h-5.233l1.416-3.7c0.576-1.464,1.152-2.928,1.176-2.952H368.2c0.024,0.024.6,1.512,1.176,2.952Zm13.943-.456,6.337-9.961h-3.576l-3.073,4.9c-0.7,1.1-1.2,2.016-1.224,2.04H383.1c-0.024-.024-0.552-0.936-1.248-2.064l-2.976-4.9-3.864.024,6.336,9.961V64h3.36v-6.84Z" transform="translate(-230 -30)"/>
  <rect id="container" class="cls-2" width="50" height="50"/>
  <path id="D" class="cls-3" d="M243.268,42.8V68h10.15c7.487,0,13.211-4.787,13.211-12.49,0-7.667-5.688-12.706-13.283-12.706H243.268Zm5,20.553V47.447h4.787c4.464,0,8.531,2.592,8.531,8.063,0,5.507-4.067,7.847-8.459,7.847h-4.859Z" transform="translate(-230 -30)"/>
</svg>
